<?xml version="1.0" encoding="UTF-8" standalone="no"?>
<svg
   xmlns:dc="http://purl.org/dc/elements/1.1/"
   xmlns:cc="http://creativecommons.org/ns#"
   xmlns:rdf="http://www.w3.org/1999/02/22-rdf-syntax-ns#"
   xmlns:svg="http://www.w3.org/2000/svg"
   xmlns="http://www.w3.org/2000/svg"
   xmlns:sodipodi="http://sodipodi.sourceforge.net/DTD/sodipodi-0.dtd"
   xmlns:inkscape="http://www.inkscape.org/namespaces/inkscape"
   width="512"
   height="512"
   viewBox="0 0 135.46666 135.46667"
   version="1.1"
   id="svg8"
   inkscape:version="1.0.2 (e86c870879, 2021-01-15)"
   sodipodi:docname="app.svg"
   inkscape:export-filename="/data/home/kuesji/app.png"
   inkscape:export-xdpi="96"
   inkscape:export-ydpi="96">
  <defs
     id="defs2" />
  <sodipodi:namedview
     id="base"
     pagecolor="#ffffff"
     bordercolor="#666666"
     borderopacity="1.0"
     inkscape:pageopacity="0.0"
     inkscape:pageshadow="2"
     inkscape:zoom="0.49497475"
     inkscape:cx="662.51311"
     inkscape:cy="414.00134"
     inkscape:document-units="mm"
     inkscape:current-layer="layer1"
     inkscape:document-rotation="0"
     showgrid="false"
     units="px"
     inkscape:window-width="1366"
     inkscape:window-height="713"
     inkscape:window-x="0"
     inkscape:window-y="0"
     inkscape:window-maximized="1" />
  <metadata
     id="metadata5">
    <rdf:RDF>
      <cc:Work
         rdf:about="">
        <dc:format>image/svg+xml</dc:format>
        <dc:type
           rdf:resource="http://purl.org/dc/dcmitype/StillImage" />
        <dc:title></dc:title>
      </cc:Work>
    </rdf:RDF>
  </metadata>
  <g
     inkscape:label="Katman 1"
     inkscape:groupmode="layer"
     id="layer1">
    <rect
       style="fill:#000000;fill-opacity:1;stroke:none;stroke-width:3.37053;paint-order:stroke fill markers"
       id="rect910"
       width="135.46666"
       height="135.46666"
       x="0"
       y="0.00021640438"
       ry="0" />
    <path
       id="path912"
       style="fill:#41609b;fill-opacity:1;stroke:none;stroke-width:2.30873;paint-order:stroke fill markers"
       d="m 55.194475,53.95292 -4.58288,2.645909 13.22922,22.913674 2.64591,4.582861 4.58287,-2.645914 22.91367,-13.229214 -2.64593,-4.582863 -22.91366,13.229216 z" />
    <path
       id="path914"
       style="fill:#41609b;fill-opacity:1;stroke:none;stroke-width:5.55654;paint-order:stroke fill markers"
       d="M 41.130525,1.8e-6 37.166945,14.791346 2.1543945e-4,4.8322641 V 10.123932 L 35.844025,19.728513 14.545065,99.217199 2.1543945e-4,95.319769 v 5.291661 L 13.222145,104.15437 l -8.3901896,31.3123 5.2916696,-1e-5 8.03569,-29.98938 79.4892,21.29895 -2.32854,8.69044 h 5.291675 l 1.97404,-7.36751 27.49548,7.36751 h 5.38572 v -3.84834 l -31.55829,-8.45634 21.29896,-79.488687 10.25933,2.749188 -1e-5,-5.291669 -8.93641,-2.394688 L 135.46689,5.3852031 135.46688,0 131.61802,7e-7 121.59331,37.41322 42.104105,16.114262 46.421675,1.6e-6 Z m -0.34934,21.0514272 79.489205,21.298958 -21.298955,79.488693 -79.4892,-21.29896 z" />
  </g>
</svg>
